<svg width="90" height="16" viewBox="0 0 90 16" fill="none" xmlns="http://www.w3.org/2000/svg">
<path d="M55.4762 1.30159C54.6508 0.444445 53.4762 0 52.1429 0H45.6032C42.8413 0 41 1.84127 41 4.60318V11.1111C41 12.4762 41.4444 13.6508 42.3333 14.5079C43.1905 15.3333 44.3333 15.746 45.6349 15.746H52.1112C53.4762 15.746 54.6191 15.3016 55.4445 14.5079C56.3016 13.6826 56.7461 12.5079 56.7461 11.1429V4.60318C56.7461 3.26984 56.3016 2.12699 55.4762 1.30159ZM55.2858 11.1429C55.2858 12.127 55 12.9206 54.4286 13.4603C53.8572 14 53.0635 14.2857 52.1112 14.2857H45.6349C44.6825 14.2857 43.8889 14 43.3175 13.4603C42.746 12.8889 42.4603 12.0953 42.4603 11.1111V4.60318C42.4603 3.65079 42.746 2.85714 43.3175 2.28572C43.8571 1.74603 44.6825 1.46032 45.6349 1.46032H52.1746C53.127 1.46032 53.9207 1.74603 54.4921 2.31746C55.0318 2.88889 55.3492 3.68254 55.3492 4.60318V11.1429H55.2858Z" fill="black"/>
<path d="M48.9841 3.4762C46.7619 3.4762 44.9207 5.28572 44.9207 7.53969C44.9207 9.79366 46.7302 11.6032 48.9841 11.6032C51.2381 11.6032 53.0476 9.76191 53.0476 7.53969C53.0476 5.31747 51.2064 3.4762 48.9841 3.4762ZM48.9841 10.1429C47.5556 10.1429 46.381 8.96826 46.381 7.53969C46.381 6.11112 47.5556 4.93652 48.9841 4.93652C50.4127 4.93652 51.5873 6.11112 51.5873 7.53969C51.5873 8.96826 50.4127 10.1429 48.9841 10.1429Z" fill="black"/>
<path d="M89.1272 4.96664H86.6999V3.3747C86.6999 2.77685 87.0962 2.63747 87.3753 2.63747C87.6537 2.63747 89.0882 2.63747 89.0882 2.63747V0.00920802L86.7292 0C84.1104 0 83.5145 1.96024 83.5145 3.21468V4.96664H82V7.67491H83.5145C83.5145 11.1506 83.5145 15.3384 83.5145 15.3384H86.6999C86.6999 15.3384 86.6999 11.1093 86.6999 7.67491H88.8494L89.1272 4.96664Z" fill="black"/>
<path d="M15.64 2.62278C15.0648 2.89834 14.4464 3.08429 13.797 3.16771C14.4597 2.73965 14.9682 2.06144 15.2079 1.25283C14.5879 1.64962 13.9015 1.93771 13.1704 2.09305C12.5852 1.42038 11.7512 1 10.8284 1C9.05634 1 7.61965 2.54969 7.61965 4.46109C7.61965 4.7323 7.648 4.99633 7.70272 5.24964C5.03594 5.1055 2.67143 3.72771 1.08886 1.63356C0.812748 2.14455 0.654479 2.739 0.654479 3.37355C0.654479 4.57426 1.22093 5.63354 2.08189 6.2544C1.55606 6.23618 1.06108 6.08068 0.62858 5.82131C0.628291 5.83569 0.628291 5.85025 0.628291 5.86515C0.628291 7.54176 1.73436 8.9406 3.20237 9.2588C2.93309 9.33773 2.64958 9.3802 2.3569 9.3802C2.14993 9.3802 1.94903 9.35862 1.75309 9.31802C2.16159 10.693 3.34654 11.6937 4.7504 11.7216C3.65224 12.65 2.26883 13.2032 0.765312 13.2032C0.506439 13.2032 0.251125 13.1867 0 13.1549C1.42027 14.1372 3.10672 14.71 4.91873 14.71C10.8209 14.71 14.0481 9.43605 14.0481 4.86237C14.0481 4.71254 14.0453 4.56289 14.0391 4.41458C14.6659 3.92667 15.2101 3.31705 15.64 2.62278Z" fill="black"/>
</svg>
